<mxfile host="app.diagrams.net" agent="Mozilla/5.0 (Windows NT 10.0; Win64; x64) AppleWebKit/537.36 (KHTML, like Gecko) Chrome/128.0.0.0 Safari/537.36" version="24.7.16">
  <diagram name="Page-1" id="3CnkZFwV34Klkb94QdGB">
    <mxGraphModel dx="920" dy="1633" grid="1" gridSize="10" guides="1" tooltips="1" connect="1" arrows="1" fold="1" page="1" pageScale="1" pageWidth="850" pageHeight="1100" math="0" shadow="0">
      <root>
        <mxCell id="0" />
        <mxCell id="1" parent="0" />
        <mxCell id="WqGqhC_bRpa4w6SOgIoa-9" value="" style="edgeStyle=orthogonalEdgeStyle;rounded=0;orthogonalLoop=1;jettySize=auto;html=1;" parent="1" source="WqGqhC_bRpa4w6SOgIoa-5" target="WqGqhC_bRpa4w6SOgIoa-8" edge="1">
          <mxGeometry relative="1" as="geometry" />
        </mxCell>
        <mxCell id="WqGqhC_bRpa4w6SOgIoa-5" value="Inicio" style="ellipse;whiteSpace=wrap;html=1;" parent="1" vertex="1">
          <mxGeometry x="60" y="40" width="120" height="80" as="geometry" />
        </mxCell>
        <mxCell id="WqGqhC_bRpa4w6SOgIoa-11" value="" style="edgeStyle=orthogonalEdgeStyle;rounded=0;orthogonalLoop=1;jettySize=auto;html=1;" parent="1" source="WqGqhC_bRpa4w6SOgIoa-8" target="WqGqhC_bRpa4w6SOgIoa-10" edge="1">
          <mxGeometry relative="1" as="geometry" />
        </mxCell>
        <mxCell id="WqGqhC_bRpa4w6SOgIoa-8" value="Ler Nota" style="shape=parallelogram;perimeter=parallelogramPerimeter;whiteSpace=wrap;html=1;fixedSize=1;" parent="1" vertex="1">
          <mxGeometry x="60" y="140" width="120" height="60" as="geometry" />
        </mxCell>
        <mxCell id="WqGqhC_bRpa4w6SOgIoa-13" style="edgeStyle=orthogonalEdgeStyle;rounded=0;orthogonalLoop=1;jettySize=auto;html=1;entryX=0;entryY=0.5;entryDx=0;entryDy=0;" parent="1" source="WqGqhC_bRpa4w6SOgIoa-10" target="WqGqhC_bRpa4w6SOgIoa-12" edge="1">
          <mxGeometry relative="1" as="geometry" />
        </mxCell>
        <mxCell id="WqGqhC_bRpa4w6SOgIoa-17" style="edgeStyle=orthogonalEdgeStyle;rounded=0;orthogonalLoop=1;jettySize=auto;html=1;entryX=0.5;entryY=0;entryDx=0;entryDy=0;" parent="1" source="WqGqhC_bRpa4w6SOgIoa-10" target="WqGqhC_bRpa4w6SOgIoa-16" edge="1">
          <mxGeometry relative="1" as="geometry" />
        </mxCell>
        <mxCell id="WqGqhC_bRpa4w6SOgIoa-10" value="Nota&amp;gt;9.5" style="rhombus;whiteSpace=wrap;html=1;" parent="1" vertex="1">
          <mxGeometry x="80" y="217" width="80" height="80" as="geometry" />
        </mxCell>
        <mxCell id="WqGqhC_bRpa4w6SOgIoa-12" value="Reprovado" style="shape=parallelogram;perimeter=parallelogramPerimeter;whiteSpace=wrap;html=1;fixedSize=1;" parent="1" vertex="1">
          <mxGeometry x="171" y="227" width="120" height="60" as="geometry" />
        </mxCell>
        <mxCell id="WqGqhC_bRpa4w6SOgIoa-15" value="Nao" style="text;html=1;align=center;verticalAlign=middle;whiteSpace=wrap;rounded=0;" parent="1" vertex="1">
          <mxGeometry x="136" y="230" width="60" height="30" as="geometry" />
        </mxCell>
        <mxCell id="WqGqhC_bRpa4w6SOgIoa-65" value="" style="edgeStyle=orthogonalEdgeStyle;rounded=0;orthogonalLoop=1;jettySize=auto;html=1;" parent="1" source="WqGqhC_bRpa4w6SOgIoa-16" target="WqGqhC_bRpa4w6SOgIoa-62" edge="1">
          <mxGeometry relative="1" as="geometry" />
        </mxCell>
        <mxCell id="WqGqhC_bRpa4w6SOgIoa-16" value="Aprovado" style="shape=parallelogram;perimeter=parallelogramPerimeter;whiteSpace=wrap;html=1;fixedSize=1;" parent="1" vertex="1">
          <mxGeometry x="60" y="310" width="120" height="60" as="geometry" />
        </mxCell>
        <mxCell id="WqGqhC_bRpa4w6SOgIoa-18" value="Sim" style="text;html=1;align=center;verticalAlign=middle;whiteSpace=wrap;rounded=0;" parent="1" vertex="1">
          <mxGeometry x="107" y="288" width="60" height="30" as="geometry" />
        </mxCell>
        <mxCell id="WqGqhC_bRpa4w6SOgIoa-21" value="Fim" style="ellipse;whiteSpace=wrap;html=1;" parent="1" vertex="1">
          <mxGeometry x="60" y="440" width="120" height="80" as="geometry" />
        </mxCell>
        <mxCell id="DN1Lzix_WSuaVc6wQBhO-9" style="edgeStyle=orthogonalEdgeStyle;rounded=0;orthogonalLoop=1;jettySize=auto;html=1;exitX=0.5;exitY=1;exitDx=0;exitDy=0;entryX=0.5;entryY=0;entryDx=0;entryDy=0;" edge="1" parent="1" source="WqGqhC_bRpa4w6SOgIoa-24" target="WqGqhC_bRpa4w6SOgIoa-26">
          <mxGeometry relative="1" as="geometry" />
        </mxCell>
        <mxCell id="WqGqhC_bRpa4w6SOgIoa-24" value="Inicio" style="ellipse;whiteSpace=wrap;html=1;" parent="1" vertex="1">
          <mxGeometry x="580" y="-209" width="120" height="80" as="geometry" />
        </mxCell>
        <mxCell id="WqGqhC_bRpa4w6SOgIoa-29" value="" style="edgeStyle=orthogonalEdgeStyle;rounded=0;orthogonalLoop=1;jettySize=auto;html=1;" parent="1" source="WqGqhC_bRpa4w6SOgIoa-25" target="WqGqhC_bRpa4w6SOgIoa-28" edge="1">
          <mxGeometry relative="1" as="geometry" />
        </mxCell>
        <mxCell id="WqGqhC_bRpa4w6SOgIoa-34" value="" style="edgeStyle=orthogonalEdgeStyle;rounded=0;orthogonalLoop=1;jettySize=auto;html=1;" parent="1" source="WqGqhC_bRpa4w6SOgIoa-25" target="WqGqhC_bRpa4w6SOgIoa-31" edge="1">
          <mxGeometry relative="1" as="geometry" />
        </mxCell>
        <mxCell id="WqGqhC_bRpa4w6SOgIoa-25" value="P1&amp;gt;P2" style="rhombus;whiteSpace=wrap;html=1;" parent="1" vertex="1">
          <mxGeometry x="600" y="230" width="80" height="80" as="geometry" />
        </mxCell>
        <mxCell id="DN1Lzix_WSuaVc6wQBhO-10" value="" style="edgeStyle=orthogonalEdgeStyle;rounded=0;orthogonalLoop=1;jettySize=auto;html=1;" edge="1" parent="1" source="WqGqhC_bRpa4w6SOgIoa-26" target="DN1Lzix_WSuaVc6wQBhO-3">
          <mxGeometry relative="1" as="geometry" />
        </mxCell>
        <mxCell id="WqGqhC_bRpa4w6SOgIoa-26" value="Ler P1, P2, P3" style="shape=parallelogram;perimeter=parallelogramPerimeter;whiteSpace=wrap;html=1;fixedSize=1;" parent="1" vertex="1">
          <mxGeometry x="580" y="-100" width="120" height="60" as="geometry" />
        </mxCell>
        <mxCell id="DN1Lzix_WSuaVc6wQBhO-51" style="edgeStyle=orthogonalEdgeStyle;rounded=0;orthogonalLoop=1;jettySize=auto;html=1;entryX=0.5;entryY=0;entryDx=0;entryDy=0;" edge="1" parent="1" source="WqGqhC_bRpa4w6SOgIoa-28" target="DN1Lzix_WSuaVc6wQBhO-46">
          <mxGeometry relative="1" as="geometry" />
        </mxCell>
        <mxCell id="WqGqhC_bRpa4w6SOgIoa-28" value="P2&amp;gt;P3" style="rhombus;whiteSpace=wrap;html=1;" parent="1" vertex="1">
          <mxGeometry x="736" y="230" width="80" height="80" as="geometry" />
        </mxCell>
        <mxCell id="WqGqhC_bRpa4w6SOgIoa-30" value="Nao" style="text;html=1;align=center;verticalAlign=middle;whiteSpace=wrap;rounded=0;" parent="1" vertex="1">
          <mxGeometry x="676" y="250" width="60" height="30" as="geometry" />
        </mxCell>
        <mxCell id="DN1Lzix_WSuaVc6wQBhO-49" style="edgeStyle=orthogonalEdgeStyle;rounded=0;orthogonalLoop=1;jettySize=auto;html=1;" edge="1" parent="1" source="WqGqhC_bRpa4w6SOgIoa-31" target="DN1Lzix_WSuaVc6wQBhO-48">
          <mxGeometry relative="1" as="geometry" />
        </mxCell>
        <mxCell id="WqGqhC_bRpa4w6SOgIoa-31" value="P1&amp;gt;P3" style="rhombus;whiteSpace=wrap;html=1;" parent="1" vertex="1">
          <mxGeometry x="472" y="231" width="80" height="80" as="geometry" />
        </mxCell>
        <mxCell id="WqGqhC_bRpa4w6SOgIoa-35" value="Sim" style="text;html=1;align=center;verticalAlign=middle;whiteSpace=wrap;rounded=0;" parent="1" vertex="1">
          <mxGeometry x="552" y="250" width="60" height="30" as="geometry" />
        </mxCell>
        <mxCell id="WqGqhC_bRpa4w6SOgIoa-84" value="Soma e segue - 28 --- US GURI DA GINESTAL" style="swimlane;whiteSpace=wrap;html=1;" parent="1" vertex="1">
          <mxGeometry x="10" y="580" width="290" height="510" as="geometry">
            <mxRectangle x="10" y="570" width="250" height="30" as="alternateBounds" />
          </mxGeometry>
        </mxCell>
        <mxCell id="WqGqhC_bRpa4w6SOgIoa-71" value="Inicio" style="ellipse;whiteSpace=wrap;html=1;" parent="WqGqhC_bRpa4w6SOgIoa-84" vertex="1">
          <mxGeometry x="85" y="41" width="120" height="80" as="geometry" />
        </mxCell>
        <mxCell id="WqGqhC_bRpa4w6SOgIoa-76" value="" style="edgeStyle=orthogonalEdgeStyle;rounded=0;orthogonalLoop=1;jettySize=auto;html=1;" parent="WqGqhC_bRpa4w6SOgIoa-84" source="WqGqhC_bRpa4w6SOgIoa-71" edge="1">
          <mxGeometry relative="1" as="geometry">
            <mxPoint x="145" y="151" as="targetPoint" />
          </mxGeometry>
        </mxCell>
        <mxCell id="WqGqhC_bRpa4w6SOgIoa-57" value="Fim" style="ellipse;whiteSpace=wrap;html=1;" parent="1" vertex="1">
          <mxGeometry x="585" y="640" width="120" height="80" as="geometry" />
        </mxCell>
        <mxCell id="WqGqhC_bRpa4w6SOgIoa-66" value="" style="edgeStyle=orthogonalEdgeStyle;rounded=0;orthogonalLoop=1;jettySize=auto;html=1;" parent="1" source="WqGqhC_bRpa4w6SOgIoa-62" target="WqGqhC_bRpa4w6SOgIoa-21" edge="1">
          <mxGeometry relative="1" as="geometry" />
        </mxCell>
        <mxCell id="WqGqhC_bRpa4w6SOgIoa-72" value="Fim" style="ellipse;whiteSpace=wrap;html=1;" parent="1" vertex="1">
          <mxGeometry x="95" y="1000" width="120" height="80" as="geometry" />
        </mxCell>
        <mxCell id="WqGqhC_bRpa4w6SOgIoa-62" value="" style="ellipse;whiteSpace=wrap;html=1;aspect=fixed;fillColor=#000000;" parent="1" vertex="1">
          <mxGeometry x="110" y="400" width="20" height="20" as="geometry" />
        </mxCell>
        <mxCell id="WqGqhC_bRpa4w6SOgIoa-63" value="" style="endArrow=none;html=1;rounded=0;" parent="1" edge="1">
          <mxGeometry width="50" height="50" relative="1" as="geometry">
            <mxPoint x="230" y="410" as="sourcePoint" />
            <mxPoint x="230" y="290" as="targetPoint" />
          </mxGeometry>
        </mxCell>
        <mxCell id="WqGqhC_bRpa4w6SOgIoa-64" value="" style="endArrow=classic;html=1;rounded=0;entryX=1;entryY=0.5;entryDx=0;entryDy=0;" parent="1" target="WqGqhC_bRpa4w6SOgIoa-62" edge="1">
          <mxGeometry width="50" height="50" relative="1" as="geometry">
            <mxPoint x="230" y="410" as="sourcePoint" />
            <mxPoint x="280" y="360" as="targetPoint" />
          </mxGeometry>
        </mxCell>
        <mxCell id="WqGqhC_bRpa4w6SOgIoa-81" value="Passar de ano - 25 --- ACABADO" style="swimlane;whiteSpace=wrap;html=1;" parent="1" vertex="1">
          <mxGeometry x="10" y="10" width="290" height="550" as="geometry">
            <mxRectangle x="10" y="10" width="140" height="30" as="alternateBounds" />
          </mxGeometry>
        </mxCell>
        <mxCell id="DN1Lzix_WSuaVc6wQBhO-22" style="edgeStyle=orthogonalEdgeStyle;rounded=0;orthogonalLoop=1;jettySize=auto;html=1;exitX=1;exitY=0.5;exitDx=0;exitDy=0;entryX=0.5;entryY=1;entryDx=0;entryDy=0;" edge="1" parent="1" source="DN1Lzix_WSuaVc6wQBhO-3" target="DN1Lzix_WSuaVc6wQBhO-19">
          <mxGeometry relative="1" as="geometry" />
        </mxCell>
        <mxCell id="DN1Lzix_WSuaVc6wQBhO-24" style="edgeStyle=orthogonalEdgeStyle;rounded=0;orthogonalLoop=1;jettySize=auto;html=1;exitX=0.5;exitY=1;exitDx=0;exitDy=0;" edge="1" parent="1" source="DN1Lzix_WSuaVc6wQBhO-3">
          <mxGeometry relative="1" as="geometry">
            <mxPoint x="640" y="230" as="targetPoint" />
          </mxGeometry>
        </mxCell>
        <mxCell id="DN1Lzix_WSuaVc6wQBhO-3" value="P1=P2&lt;div&gt;or&lt;/div&gt;&lt;div&gt;P1=P3&lt;/div&gt;&lt;div&gt;or&lt;/div&gt;&lt;div&gt;P2=P3&lt;/div&gt;" style="rhombus;whiteSpace=wrap;html=1;" vertex="1" parent="1">
          <mxGeometry x="575" y="10" width="130" height="100" as="geometry" />
        </mxCell>
        <mxCell id="DN1Lzix_WSuaVc6wQBhO-20" style="edgeStyle=orthogonalEdgeStyle;rounded=0;orthogonalLoop=1;jettySize=auto;html=1;entryX=1;entryY=0.5;entryDx=0;entryDy=0;" edge="1" parent="1" source="DN1Lzix_WSuaVc6wQBhO-19" target="WqGqhC_bRpa4w6SOgIoa-24">
          <mxGeometry relative="1" as="geometry">
            <Array as="points">
              <mxPoint x="890" y="-169" />
            </Array>
          </mxGeometry>
        </mxCell>
        <mxCell id="DN1Lzix_WSuaVc6wQBhO-19" value="Então volte e escolha números diferentes seu burro." style="rounded=0;whiteSpace=wrap;html=1;" vertex="1" parent="1">
          <mxGeometry x="830" y="-90" width="120" height="60" as="geometry" />
        </mxCell>
        <mxCell id="DN1Lzix_WSuaVc6wQBhO-23" value="Sim" style="text;html=1;align=center;verticalAlign=middle;whiteSpace=wrap;rounded=0;" vertex="1" parent="1">
          <mxGeometry x="700" y="40" width="60" height="30" as="geometry" />
        </mxCell>
        <mxCell id="DN1Lzix_WSuaVc6wQBhO-25" value="Não" style="text;html=1;align=center;verticalAlign=middle;whiteSpace=wrap;rounded=0;" vertex="1" parent="1">
          <mxGeometry x="630" y="100" width="60" height="30" as="geometry" />
        </mxCell>
        <mxCell id="DN1Lzix_WSuaVc6wQBhO-27" style="edgeStyle=orthogonalEdgeStyle;rounded=0;orthogonalLoop=1;jettySize=auto;html=1;exitX=0.5;exitY=1;exitDx=0;exitDy=0;" edge="1" parent="1" source="DN1Lzix_WSuaVc6wQBhO-25" target="DN1Lzix_WSuaVc6wQBhO-25">
          <mxGeometry relative="1" as="geometry" />
        </mxCell>
        <mxCell id="DN1Lzix_WSuaVc6wQBhO-41" value="SIM" style="text;html=1;align=center;verticalAlign=middle;whiteSpace=wrap;rounded=0;" vertex="1" parent="1">
          <mxGeometry x="459" y="310" width="60" height="30" as="geometry" />
        </mxCell>
        <mxCell id="DN1Lzix_WSuaVc6wQBhO-44" value="SIM" style="text;html=1;align=center;verticalAlign=middle;whiteSpace=wrap;rounded=0;" vertex="1" parent="1">
          <mxGeometry x="767" y="310" width="60" height="30" as="geometry" />
        </mxCell>
        <mxCell id="DN1Lzix_WSuaVc6wQBhO-45" value="Não" style="text;html=1;align=center;verticalAlign=middle;whiteSpace=wrap;rounded=0;" vertex="1" parent="1">
          <mxGeometry x="700" y="287" width="60" height="30" as="geometry" />
        </mxCell>
        <mxCell id="DN1Lzix_WSuaVc6wQBhO-69" style="edgeStyle=orthogonalEdgeStyle;rounded=0;orthogonalLoop=1;jettySize=auto;html=1;entryX=1;entryY=0.5;entryDx=0;entryDy=0;" edge="1" parent="1" source="DN1Lzix_WSuaVc6wQBhO-46" target="DN1Lzix_WSuaVc6wQBhO-59">
          <mxGeometry relative="1" as="geometry">
            <Array as="points">
              <mxPoint x="776" y="570" />
            </Array>
          </mxGeometry>
        </mxCell>
        <mxCell id="DN1Lzix_WSuaVc6wQBhO-46" value="Imprima P2" style="shape=parallelogram;perimeter=parallelogramPerimeter;whiteSpace=wrap;html=1;fixedSize=1;" vertex="1" parent="1">
          <mxGeometry x="716" y="440" width="120" height="60" as="geometry" />
        </mxCell>
        <mxCell id="DN1Lzix_WSuaVc6wQBhO-68" style="edgeStyle=orthogonalEdgeStyle;rounded=0;orthogonalLoop=1;jettySize=auto;html=1;entryX=0.5;entryY=0;entryDx=0;entryDy=0;" edge="1" parent="1" source="DN1Lzix_WSuaVc6wQBhO-47" target="DN1Lzix_WSuaVc6wQBhO-59">
          <mxGeometry relative="1" as="geometry" />
        </mxCell>
        <mxCell id="DN1Lzix_WSuaVc6wQBhO-47" value="Imprima P3" style="shape=parallelogram;perimeter=parallelogramPerimeter;whiteSpace=wrap;html=1;fixedSize=1;" vertex="1" parent="1">
          <mxGeometry x="585" y="440" width="120" height="60" as="geometry" />
        </mxCell>
        <mxCell id="DN1Lzix_WSuaVc6wQBhO-65" style="edgeStyle=orthogonalEdgeStyle;rounded=0;orthogonalLoop=1;jettySize=auto;html=1;entryX=0;entryY=0.5;entryDx=0;entryDy=0;" edge="1" parent="1" source="DN1Lzix_WSuaVc6wQBhO-48" target="DN1Lzix_WSuaVc6wQBhO-59">
          <mxGeometry relative="1" as="geometry">
            <Array as="points">
              <mxPoint x="512" y="570" />
            </Array>
          </mxGeometry>
        </mxCell>
        <mxCell id="DN1Lzix_WSuaVc6wQBhO-48" value="Imprima P1" style="shape=parallelogram;perimeter=parallelogramPerimeter;whiteSpace=wrap;html=1;fixedSize=1;" vertex="1" parent="1">
          <mxGeometry x="452" y="440" width="120" height="60" as="geometry" />
        </mxCell>
        <mxCell id="DN1Lzix_WSuaVc6wQBhO-54" value="" style="endArrow=classic;html=1;rounded=0;entryX=0.5;entryY=0;entryDx=0;entryDy=0;exitX=1;exitY=1;exitDx=0;exitDy=0;" edge="1" parent="1" source="WqGqhC_bRpa4w6SOgIoa-31" target="DN1Lzix_WSuaVc6wQBhO-47">
          <mxGeometry width="50" height="50" relative="1" as="geometry">
            <mxPoint x="540" y="300" as="sourcePoint" />
            <mxPoint x="625" y="340" as="targetPoint" />
          </mxGeometry>
        </mxCell>
        <mxCell id="DN1Lzix_WSuaVc6wQBhO-58" value="" style="endArrow=classic;html=1;rounded=0;exitX=0;exitY=1;exitDx=0;exitDy=0;entryX=0.5;entryY=0;entryDx=0;entryDy=0;" edge="1" parent="1" source="WqGqhC_bRpa4w6SOgIoa-28" target="DN1Lzix_WSuaVc6wQBhO-47">
          <mxGeometry width="50" height="50" relative="1" as="geometry">
            <mxPoint x="686" y="370" as="sourcePoint" />
            <mxPoint x="680" y="400" as="targetPoint" />
            <Array as="points" />
          </mxGeometry>
        </mxCell>
        <mxCell id="DN1Lzix_WSuaVc6wQBhO-70" style="edgeStyle=orthogonalEdgeStyle;rounded=0;orthogonalLoop=1;jettySize=auto;html=1;entryX=0.5;entryY=0;entryDx=0;entryDy=0;" edge="1" parent="1" source="DN1Lzix_WSuaVc6wQBhO-59" target="WqGqhC_bRpa4w6SOgIoa-57">
          <mxGeometry relative="1" as="geometry" />
        </mxCell>
        <mxCell id="DN1Lzix_WSuaVc6wQBhO-59" value="" style="ellipse;whiteSpace=wrap;html=1;aspect=fixed;fillColor=#000000;" vertex="1" parent="1">
          <mxGeometry x="635" y="560" width="20" height="20" as="geometry" />
        </mxCell>
        <mxCell id="DN1Lzix_WSuaVc6wQBhO-71" value="Não" style="text;html=1;align=center;verticalAlign=middle;whiteSpace=wrap;rounded=0;" vertex="1" parent="1">
          <mxGeometry x="530" y="288" width="60" height="30" as="geometry" />
        </mxCell>
      </root>
    </mxGraphModel>
  </diagram>
</mxfile>
